<?xml version="1.0" encoding="utf-8"?>
<!-- Generator: Adobe Illustrator 23.0.6, SVG Export Plug-In . SVG Version: 6.00 Build 0)  -->
<svg version="1.1" xmlns="http://www.w3.org/2000/svg" xmlns:xlink="http://www.w3.org/1999/xlink" x="0px" y="0px"
	 viewBox="0 0 1721.4 284" style="enable-background:new 0 0 1721.4 284;" xml:space="preserve">
<style type="text/css">
	.st0{fill:#FFFFFF;}
</style>
<g id="Layer_2">
	<rect x="498.3" y="2.9" width="605.3" height="278.3"/>
</g>
<g id="Layer_1">
	<g>
		<path d="M3.7,2.9H200V40H3.7V2.9z M82.3,25.6h39v255.5h-39V25.6z"/>
		<path d="M259.3,281.2h-39V2.9h39V281.2z"/>
		<path d="M372.4,284c0,0-7.3-4.3-21.9-12.8c-14.6-8.5-25.9-20.7-34-36.4c-8-15.7-12.1-33.9-12.1-54.6v-76.4
			c0-20.7,4-38.9,12.1-54.6s19.4-27.8,34-36.5C365.1,4.3,382.1,0,401.3,0c15.9,0,30.6,3.4,44,10.2c13.4,6.8,24.6,16.5,33.6,29
			c9,12.5,15.1,27,18.3,43.4h-40c-2.4-8.7-6.5-16.4-12.2-23.3c-5.7-6.8-12.3-12.1-20-15.8c-7.7-3.7-15.6-5.6-23.7-5.6
			c-11.4,0-21.3,2.7-29.9,8.2c-8.6,5.5-15.2,13.2-19.9,23.1c-4.7,9.9-7.1,21.4-7.1,34.5v76.4c0,13,2.4,24.5,7.1,34.5
			c4.7,10,11.4,17.6,19.9,23.1c8.5,5.4,18.5,8.1,29.9,8.1c8.3,0,16.2-1.7,23.8-5.2c7.6-3.4,14.2-8.5,19.9-15.3
			c5.7-6.8,9.7-14.8,12.2-24.1h40c-3.2,16.5-9.3,30.9-18.4,43.4c-9.1,12.5-20.3,22.2-33.7,29c-13.4,6.8-28,10.2-43.8,10.2
			C382.1,284,372.4,284,372.4,284z"/>
		<path class="st0" d="M496.4,2.9h196.4V40H496.4V2.9z M575.1,25.6h39v255.5h-39V25.6z"/>
		<path class="st0" d="M771.6,2.9h33.3l102.6,278.3h-42.1L788.3,56.7l-77.1,224.5H669L771.6,2.9z M716.3,183h146.4v37.1H716.3V183z"
			/>
		<path class="st0" d="M978.5,284c0,0-7.3-4.3-21.9-12.8c-14.6-8.5-25.9-20.7-34-36.4c-8-15.7-12.1-33.9-12.1-54.6v-76.4
			c0-20.7,4-38.9,12.1-54.6s19.4-27.8,34-36.5C971.2,4.3,988.1,0,1007.4,0c15.9,0,30.6,3.4,44,10.2c13.4,6.8,24.6,16.5,33.6,29
			c9,12.5,15.1,27,18.3,43.4h-40c-2.4-8.7-6.5-16.4-12.2-23.3c-5.7-6.8-12.3-12.1-20-15.8c-7.7-3.7-15.6-5.6-23.7-5.6
			c-11.4,0-21.3,2.7-29.9,8.2c-8.6,5.5-15.2,13.2-19.9,23.1c-4.7,9.9-7.1,21.4-7.1,34.5v76.4c0,13,2.4,24.5,7.1,34.5
			c4.7,10,11.4,17.6,19.9,23.1c8.5,5.4,18.5,8.1,29.9,8.1c8.3,0,16.2-1.7,23.8-5.2c7.6-3.4,14.2-8.5,19.9-15.3
			c5.7-6.8,9.7-14.8,12.2-24.1h40c-3.2,16.5-9.3,30.9-18.4,43.4c-9.1,12.5-20.3,22.2-33.7,29c-13.4,6.8-28,10.2-43.8,10.2
			C988.1,284,978.5,284,978.5,284z"/>
		<path d="M1102.5,2.9h196.4V40h-196.4V2.9z M1181.1,25.6h39v255.5h-39V25.6z"/>
		<path d="M1352.2,271.3c-14.8-8.5-26.3-20.5-34.4-36c-8.1-15.5-12.2-33.5-12.2-53.9v-78.9c0-20.4,4-38.4,12.2-53.9
			c8.1-15.5,19.6-27.5,34.4-36C1367,4.2,1384.1,0,1403.5,0c19.4,0,36.5,4.2,51.3,12.7c14.8,8.5,26.3,20.5,34.4,36
			c8.1,15.5,12.2,33.5,12.2,53.9v78.9c0,20.4-4.1,38.4-12.2,53.9c-8.1,15.5-19.6,27.5-34.4,36c-14.8,8.5-31.9,12.7-51.3,12.7
			C1384.1,284,1367,279.8,1352.2,271.3z M1433.9,237.8c8.7-5.2,15.5-12.5,20.3-22c4.8-9.5,7.2-20.5,7.2-33v-81.5
			c0-12.5-2.4-23.5-7.2-33c-4.8-9.5-11.5-16.8-20.3-22c-8.7-5.2-18.9-7.8-30.3-7.8s-21.6,2.6-30.3,7.8c-8.7,5.2-15.5,12.5-20.3,22
			c-4.8,9.5-7.2,20.5-7.2,33v81.5c0,12.5,2.4,23.5,7.2,33c4.8,9.5,11.5,16.8,20.3,22c8.7,5.2,18.9,7.8,30.3,7.8
			S1425.1,243,1433.9,237.8z"/>
		<path d="M1542.6,2.9h39v278.3h-39V2.9z M1561.6,2.9h159.8V40h-159.8V2.9z M1561.6,124.4h138.8v37.1h-138.8V124.4z M1561.6,244
			h159.8v37.1h-159.8V244z"/>
	</g>
</g>
</svg>
